<mxfile host="app.diagrams.net" modified="2022-03-18T03:48:52.023Z" agent="5.0 (Macintosh; Intel Mac OS X 10_15_7) AppleWebKit/537.36 (KHTML, like Gecko) Chrome/99.0.4844.51 Safari/537.36" etag="b23H66v8dd_FDY4Qz3Qo" version="16.6.7" type="github">
  <diagram id="VMAOQe_0gnJvLNbKO70s" name="第 1 页">
    <mxGraphModel dx="3278" dy="2689" grid="1" gridSize="10" guides="1" tooltips="1" connect="1" arrows="1" fold="1" page="1" pageScale="1" pageWidth="827" pageHeight="1169" math="0" shadow="0">
      <root>
        <mxCell id="0" />
        <mxCell id="1" parent="0" />
        <mxCell id="15yaaTe_zvbIPGnelZEA-4" value="" style="edgeStyle=orthogonalEdgeStyle;rounded=0;orthogonalLoop=1;jettySize=auto;html=1;" edge="1" parent="1" source="15yaaTe_zvbIPGnelZEA-2" target="15yaaTe_zvbIPGnelZEA-3">
          <mxGeometry relative="1" as="geometry" />
        </mxCell>
        <mxCell id="15yaaTe_zvbIPGnelZEA-2" value="keqiao_develop" style="shape=process;whiteSpace=wrap;html=1;backgroundOutline=1;" vertex="1" parent="1">
          <mxGeometry x="260" y="280" width="120" height="60" as="geometry" />
        </mxCell>
        <mxCell id="15yaaTe_zvbIPGnelZEA-48" value="" style="edgeStyle=orthogonalEdgeStyle;rounded=0;orthogonalLoop=1;jettySize=auto;html=1;" edge="1" parent="1" source="15yaaTe_zvbIPGnelZEA-3" target="15yaaTe_zvbIPGnelZEA-7">
          <mxGeometry relative="1" as="geometry" />
        </mxCell>
        <mxCell id="15yaaTe_zvbIPGnelZEA-3" value="基于这个commit开发" style="ellipse;whiteSpace=wrap;html=1;aspect=fixed;" vertex="1" parent="1">
          <mxGeometry x="280" y="90" width="80" height="80" as="geometry" />
        </mxCell>
        <mxCell id="15yaaTe_zvbIPGnelZEA-49" value="" style="edgeStyle=orthogonalEdgeStyle;rounded=0;orthogonalLoop=1;jettySize=auto;html=1;" edge="1" parent="1" source="15yaaTe_zvbIPGnelZEA-7" target="15yaaTe_zvbIPGnelZEA-15">
          <mxGeometry relative="1" as="geometry" />
        </mxCell>
        <mxCell id="15yaaTe_zvbIPGnelZEA-7" value="A做了提交，改了.java等文件" style="ellipse;whiteSpace=wrap;html=1;aspect=fixed;" vertex="1" parent="1">
          <mxGeometry x="280" y="-50" width="80" height="80" as="geometry" />
        </mxCell>
        <mxCell id="15yaaTe_zvbIPGnelZEA-13" value="分支进行了合并，AB的更改合并了" style="ellipse;whiteSpace=wrap;html=1;aspect=fixed;" vertex="1" parent="1">
          <mxGeometry x="280" y="-350" width="80" height="80" as="geometry" />
        </mxCell>
        <mxCell id="15yaaTe_zvbIPGnelZEA-50" value="" style="edgeStyle=orthogonalEdgeStyle;rounded=0;orthogonalLoop=1;jettySize=auto;html=1;" edge="1" parent="1" source="15yaaTe_zvbIPGnelZEA-15" target="15yaaTe_zvbIPGnelZEA-13">
          <mxGeometry relative="1" as="geometry" />
        </mxCell>
        <mxCell id="15yaaTe_zvbIPGnelZEA-15" value="B做了提交，改了.vue等文件" style="ellipse;whiteSpace=wrap;html=1;aspect=fixed;" vertex="1" parent="1">
          <mxGeometry x="280" y="-190" width="80" height="80" as="geometry" />
        </mxCell>
        <mxCell id="15yaaTe_zvbIPGnelZEA-18" value="" style="edgeStyle=orthogonalEdgeStyle;rounded=0;orthogonalLoop=1;jettySize=auto;html=1;" edge="1" parent="1" source="15yaaTe_zvbIPGnelZEA-19" target="15yaaTe_zvbIPGnelZEA-26">
          <mxGeometry relative="1" as="geometry" />
        </mxCell>
        <mxCell id="15yaaTe_zvbIPGnelZEA-19" value="develop" style="shape=process;whiteSpace=wrap;html=1;backgroundOutline=1;" vertex="1" parent="1">
          <mxGeometry x="1070" y="70" width="120" height="60" as="geometry" />
        </mxCell>
        <mxCell id="15yaaTe_zvbIPGnelZEA-20" value="" style="edgeStyle=orthogonalEdgeStyle;rounded=0;orthogonalLoop=1;jettySize=auto;html=1;" edge="1" parent="1" source="15yaaTe_zvbIPGnelZEA-21" target="15yaaTe_zvbIPGnelZEA-23">
          <mxGeometry relative="1" as="geometry" />
        </mxCell>
        <mxCell id="15yaaTe_zvbIPGnelZEA-21" value="keqiao_develop" style="shape=process;whiteSpace=wrap;html=1;backgroundOutline=1;" vertex="1" parent="1">
          <mxGeometry x="800" y="250" width="120" height="60" as="geometry" />
        </mxCell>
        <mxCell id="15yaaTe_zvbIPGnelZEA-54" value="" style="edgeStyle=orthogonalEdgeStyle;rounded=0;orthogonalLoop=1;jettySize=auto;html=1;" edge="1" parent="1" source="15yaaTe_zvbIPGnelZEA-23" target="15yaaTe_zvbIPGnelZEA-52">
          <mxGeometry relative="1" as="geometry" />
        </mxCell>
        <mxCell id="15yaaTe_zvbIPGnelZEA-23" value="基于这个commit开发" style="ellipse;whiteSpace=wrap;html=1;aspect=fixed;" vertex="1" parent="1">
          <mxGeometry x="820" y="60" width="80" height="80" as="geometry" />
        </mxCell>
        <mxCell id="15yaaTe_zvbIPGnelZEA-24" value="" style="edgeStyle=orthogonalEdgeStyle;rounded=0;orthogonalLoop=1;jettySize=auto;html=1;" edge="1" parent="1" source="15yaaTe_zvbIPGnelZEA-26" target="15yaaTe_zvbIPGnelZEA-28">
          <mxGeometry relative="1" as="geometry" />
        </mxCell>
        <mxCell id="15yaaTe_zvbIPGnelZEA-25" value="" style="edgeStyle=orthogonalEdgeStyle;rounded=0;orthogonalLoop=1;jettySize=auto;html=1;" edge="1" parent="1" source="15yaaTe_zvbIPGnelZEA-26" target="15yaaTe_zvbIPGnelZEA-29">
          <mxGeometry relative="1" as="geometry" />
        </mxCell>
        <mxCell id="15yaaTe_zvbIPGnelZEA-26" value="A做了提交，改了.java等文件" style="ellipse;whiteSpace=wrap;html=1;aspect=fixed;" vertex="1" parent="1">
          <mxGeometry x="1090" y="-80" width="80" height="80" as="geometry" />
        </mxCell>
        <mxCell id="15yaaTe_zvbIPGnelZEA-27" value="" style="edgeStyle=orthogonalEdgeStyle;rounded=0;orthogonalLoop=1;jettySize=auto;html=1;" edge="1" parent="1" source="15yaaTe_zvbIPGnelZEA-28" target="15yaaTe_zvbIPGnelZEA-31">
          <mxGeometry relative="1" as="geometry" />
        </mxCell>
        <mxCell id="15yaaTe_zvbIPGnelZEA-28" value="B在这个分支基础上进行开发" style="shape=process;whiteSpace=wrap;html=1;backgroundOutline=1;" vertex="1" parent="1">
          <mxGeometry x="1270" y="-70" width="120" height="60" as="geometry" />
        </mxCell>
        <mxCell id="15yaaTe_zvbIPGnelZEA-29" value="分支进行了合并，AB的更改合并了" style="ellipse;whiteSpace=wrap;html=1;aspect=fixed;" vertex="1" parent="1">
          <mxGeometry x="1164" y="-330" width="80" height="80" as="geometry" />
        </mxCell>
        <mxCell id="15yaaTe_zvbIPGnelZEA-30" style="edgeStyle=orthogonalEdgeStyle;rounded=0;orthogonalLoop=1;jettySize=auto;html=1;exitX=0;exitY=0.5;exitDx=0;exitDy=0;entryX=0.5;entryY=1;entryDx=0;entryDy=0;" edge="1" parent="1" source="15yaaTe_zvbIPGnelZEA-31" target="15yaaTe_zvbIPGnelZEA-29">
          <mxGeometry relative="1" as="geometry" />
        </mxCell>
        <mxCell id="15yaaTe_zvbIPGnelZEA-31" value="B做了提交，改了.vue等文件" style="ellipse;whiteSpace=wrap;html=1;aspect=fixed;" vertex="1" parent="1">
          <mxGeometry x="1290" y="-240" width="80" height="80" as="geometry" />
        </mxCell>
        <mxCell id="15yaaTe_zvbIPGnelZEA-32" value="合并策略1:保存所有commit" style="ellipse;whiteSpace=wrap;html=1;" vertex="1" parent="1">
          <mxGeometry x="60" y="400" width="530" height="80" as="geometry" />
        </mxCell>
        <mxCell id="15yaaTe_zvbIPGnelZEA-33" value="" style="edgeStyle=orthogonalEdgeStyle;rounded=0;orthogonalLoop=1;jettySize=auto;html=1;" edge="1" parent="1" source="15yaaTe_zvbIPGnelZEA-34" target="15yaaTe_zvbIPGnelZEA-41">
          <mxGeometry relative="1" as="geometry" />
        </mxCell>
        <mxCell id="15yaaTe_zvbIPGnelZEA-34" value="develop" style="shape=process;whiteSpace=wrap;html=1;backgroundOutline=1;" vertex="1" parent="1">
          <mxGeometry x="-450" y="90" width="120" height="60" as="geometry" />
        </mxCell>
        <mxCell id="15yaaTe_zvbIPGnelZEA-35" value="" style="edgeStyle=orthogonalEdgeStyle;rounded=0;orthogonalLoop=1;jettySize=auto;html=1;" edge="1" parent="1" source="15yaaTe_zvbIPGnelZEA-36" target="15yaaTe_zvbIPGnelZEA-38">
          <mxGeometry relative="1" as="geometry" />
        </mxCell>
        <mxCell id="15yaaTe_zvbIPGnelZEA-36" value="keqiao_develop" style="shape=process;whiteSpace=wrap;html=1;backgroundOutline=1;" vertex="1" parent="1">
          <mxGeometry x="-720" y="270" width="120" height="60" as="geometry" />
        </mxCell>
        <mxCell id="15yaaTe_zvbIPGnelZEA-37" value="" style="edgeStyle=orthogonalEdgeStyle;rounded=0;orthogonalLoop=1;jettySize=auto;html=1;" edge="1" parent="1" source="15yaaTe_zvbIPGnelZEA-38" target="15yaaTe_zvbIPGnelZEA-34">
          <mxGeometry relative="1" as="geometry" />
        </mxCell>
        <mxCell id="15yaaTe_zvbIPGnelZEA-38" value="基于这个commit开发" style="ellipse;whiteSpace=wrap;html=1;aspect=fixed;" vertex="1" parent="1">
          <mxGeometry x="-700" y="80" width="80" height="80" as="geometry" />
        </mxCell>
        <mxCell id="15yaaTe_zvbIPGnelZEA-39" value="" style="edgeStyle=orthogonalEdgeStyle;rounded=0;orthogonalLoop=1;jettySize=auto;html=1;" edge="1" parent="1" source="15yaaTe_zvbIPGnelZEA-41" target="15yaaTe_zvbIPGnelZEA-43">
          <mxGeometry relative="1" as="geometry" />
        </mxCell>
        <mxCell id="15yaaTe_zvbIPGnelZEA-40" value="" style="edgeStyle=orthogonalEdgeStyle;rounded=0;orthogonalLoop=1;jettySize=auto;html=1;" edge="1" parent="1" source="15yaaTe_zvbIPGnelZEA-41" target="15yaaTe_zvbIPGnelZEA-44">
          <mxGeometry relative="1" as="geometry" />
        </mxCell>
        <mxCell id="15yaaTe_zvbIPGnelZEA-41" value="A做了提交，改了.java等文件" style="ellipse;whiteSpace=wrap;html=1;aspect=fixed;" vertex="1" parent="1">
          <mxGeometry x="-430" y="-60" width="80" height="80" as="geometry" />
        </mxCell>
        <mxCell id="15yaaTe_zvbIPGnelZEA-42" value="" style="edgeStyle=orthogonalEdgeStyle;rounded=0;orthogonalLoop=1;jettySize=auto;html=1;" edge="1" parent="1" source="15yaaTe_zvbIPGnelZEA-43" target="15yaaTe_zvbIPGnelZEA-46">
          <mxGeometry relative="1" as="geometry" />
        </mxCell>
        <mxCell id="15yaaTe_zvbIPGnelZEA-43" value="B在这个分支基础上进行开发" style="shape=process;whiteSpace=wrap;html=1;backgroundOutline=1;" vertex="1" parent="1">
          <mxGeometry x="-250" y="-50" width="120" height="60" as="geometry" />
        </mxCell>
        <mxCell id="15yaaTe_zvbIPGnelZEA-44" value="分支进行了合并，AB的更改合并了" style="ellipse;whiteSpace=wrap;html=1;aspect=fixed;" vertex="1" parent="1">
          <mxGeometry x="-356" y="-310" width="80" height="80" as="geometry" />
        </mxCell>
        <mxCell id="15yaaTe_zvbIPGnelZEA-45" style="edgeStyle=orthogonalEdgeStyle;rounded=0;orthogonalLoop=1;jettySize=auto;html=1;exitX=0;exitY=0.5;exitDx=0;exitDy=0;entryX=0.5;entryY=1;entryDx=0;entryDy=0;" edge="1" parent="1" source="15yaaTe_zvbIPGnelZEA-46" target="15yaaTe_zvbIPGnelZEA-44">
          <mxGeometry relative="1" as="geometry" />
        </mxCell>
        <mxCell id="15yaaTe_zvbIPGnelZEA-46" value="B做了提交，改了.vue等文件" style="ellipse;whiteSpace=wrap;html=1;aspect=fixed;" vertex="1" parent="1">
          <mxGeometry x="-230" y="-220" width="80" height="80" as="geometry" />
        </mxCell>
        <mxCell id="15yaaTe_zvbIPGnelZEA-47" value="初始状态" style="ellipse;whiteSpace=wrap;html=1;" vertex="1" parent="1">
          <mxGeometry x="-690" y="390" width="530" height="80" as="geometry" />
        </mxCell>
        <mxCell id="15yaaTe_zvbIPGnelZEA-53" value="" style="edgeStyle=orthogonalEdgeStyle;rounded=0;orthogonalLoop=1;jettySize=auto;html=1;" edge="1" parent="1" source="15yaaTe_zvbIPGnelZEA-51" target="15yaaTe_zvbIPGnelZEA-52">
          <mxGeometry relative="1" as="geometry" />
        </mxCell>
        <mxCell id="15yaaTe_zvbIPGnelZEA-51" value="" style="swimlane;startSize=0;" vertex="1" parent="1">
          <mxGeometry x="1000" y="-350" width="430" height="510" as="geometry" />
        </mxCell>
        <mxCell id="15yaaTe_zvbIPGnelZEA-52" value="合并后的commit" style="ellipse;shape=cloud;whiteSpace=wrap;html=1;fontStyle=1;startSize=0;" vertex="1" parent="1">
          <mxGeometry x="800" y="-135" width="120" height="80" as="geometry" />
        </mxCell>
        <mxCell id="15yaaTe_zvbIPGnelZEA-55" value="合并策略2:压缩develop分支的所有更改为一个commit" style="ellipse;whiteSpace=wrap;html=1;" vertex="1" parent="1">
          <mxGeometry x="634" y="380" width="530" height="80" as="geometry" />
        </mxCell>
      </root>
    </mxGraphModel>
  </diagram>
</mxfile>
